<svg xmlns="http://www.w3.org/2000/svg" viewBox="0 0 32 32" fill="none">
  <rect width="32" height="32" rx="10" fill="#FAFAFA"/>
  <path fill="#2A2933" d="M16 26c1.65686 0 3 1.34314 3 3 0 1.65686-1.34314 3-3 3-1.65686 0-3-1.34314-3-3 0-1.65686 1.34314-3 3-3zm-10-2c1.10457 0 2 .89543 2 2 0 1.10457-.89543 2-2 2-1.10457 0-2-.89543-2-2 0-1.10457.89543-2 2-2zm20 0c1.10457 0 2 .89543 2 2 0 1.10457-.89543 2-2 2-1.10457 0-2-.89543-2-2 0-1.10457.89543-2 2-2zm-10-12c2.20914 0 4 1.79086 4 4 0 2.20914-1.79086 4-4 4-2.20914 0-4-1.79086-4-4 0-2.20914 1.79086-4 4-4zm-13 1c1.65685 0 3 1.34314 3 3 0 1.65686-1.34315 3-3 3-1.65685 0-3-1.34314-3-3 0-1.65686 1.34315-3 3-3zm26 0c1.65686 0 3 1.34314 3 3 0 1.65686-1.34314 3-3 3-1.65686 0-3-1.34314-3-3 0-1.65686 1.34314-3 3-3zm-23-9c1.10457 0 2 .89543 2 2 0 1.10457-.89543 2-2 2-1.10457 0-2-.89543-2-2 0-1.10457.89543-2 2-2zm20 0c1.10457 0 2 .89543 2 2 0 1.10457-.89543 2-2 2-1.10457 0-2-.89543-2-2 0-1.10457.89543-2 2-2zm-10-4c1.65686 0 3 1.34315 3 3 0 1.65685-1.34314 3-3 3-1.65686 0-3-1.34315-3-3 0-1.65685 1.34314-3 3-3z"/>
</svg>
